<svg id="Line" xmlns="http://www.w3.org/2000/svg" viewBox="0 0 64 64"><defs><style>.cls-1{fill:#231f20;}</style></defs><title>1</title><path class="cls-1" d="M17.47314,24.227a2.002,2.002,0,0,0-2-2H11.4502a2.002,2.002,0,0,0-2,2V28.25a2.002,2.002,0,0,0,2,2h4.02294a2.002,2.002,0,0,0,2-2ZM11.4502,28.25V24.227h4.02294l.00147,4.023Z"/><path class="cls-1" d="M15.47314,34.05225H11.4502a2.002,2.002,0,0,0-2,2v4.02343a2.002,2.002,0,0,0,2,2h4.02294a2.002,2.002,0,0,0,2-2V36.05225A2.002,2.002,0,0,0,15.47314,34.05225ZM11.4502,40.07568V36.05225h4.02294l.00147,4.02343Z"/><path class="cls-1" d="M29.894,22.227H25.87061a2.002,2.002,0,0,0-2,2V28.25a2.002,2.002,0,0,0,2,2H29.894a2.002,2.002,0,0,0,2-2V24.227A2.002,2.002,0,0,0,29.894,22.227ZM25.87061,28.25V24.227H29.894l.00147,4.023Z"/><path class="cls-1" d="M29.894,33.49268H25.87061a2.002,2.002,0,0,0-2,2v4.023a2.002,2.002,0,0,0,2,2H29.894a2.002,2.002,0,0,0,2-2v-4.023A2.002,2.002,0,0,0,29.894,33.49268Zm-4.02343,6.023v-4.023H29.894l.00147,4.023Z"/><path class="cls-1" d="M45.31445,27.23877a.99973.99973,0,0,0,1-1v-1.978A2.03584,2.03584,0,0,0,44.28027,22.227H40.3252A2.03584,2.03584,0,0,0,38.291,24.26074v3.95557A2.03584,2.03584,0,0,0,40.3252,30.25h1.97753a1,1,0,0,0,0-2L40.291,28.21631,40.3252,24.227l3.98925.03369v1.978A.99974.99974,0,0,0,45.31445,27.23877Z"/><path class="cls-1" d="M51.76465,37.26123l.00293-19.938-.00293-.01452V10.4668a3.07142,3.07142,0,0,0-3.06836-3.06787h-6.7168V5.38867a1,1,0,1,0-2,0V7.39893H28.88232V5.38867a1,1,0,1,0-2,0V7.39893H15.78516V5.38867a1,1,0,1,0-2,0V7.39893H7.06787A3.07163,3.07163,0,0,0,4,10.4668V46.13965A3.07174,3.07174,0,0,0,7.06787,49.208H27.88232a1,1,0,0,0,0-2H7.06787A1.06944,1.06944,0,0,1,6,46.13965V10.4668A1.069,1.069,0,0,1,7.06787,9.39893h6.71729v2.01025a1,1,0,0,0,2,0V9.39893H26.88232v2.01025a1,1,0,0,0,2,0V9.39893H39.97949v2.01025a1,1,0,0,0,2,0V9.39893h6.7168a1.06944,1.06944,0,0,1,1.06836,1.06787v5.85644H12.94141a1,1,0,1,0,0,2H49.76465V36.86371a11.46086,11.46086,0,1,0,2,.39752Zm-3.168,20.3501A9.40357,9.40357,0,1,1,58,48.208,9.41422,9.41422,0,0,1,48.59668,57.61133Z"/><path class="cls-1" d="M52.40332,47.208H49.59668V42.7085a1,1,0,0,0-2,0V48.208a.99974.99974,0,0,0,1,1h3.80664a1,1,0,1,0,0-2Z"/></svg>