<svg xmlns="http://www.w3.org/2000/svg" viewBox="0 0 512 512"><g id="Outline"><g id="Outline-2" data-name="Outline"><path d="M96,248h32a16,16,0,0,0,16-16V200a16,16,0,0,0-16-16H96a16,16,0,0,0-16,16v32A16,16,0,0,0,96,248Zm0-48h32v32H96Z"/><path d="M192,248h32a16,16,0,0,0,16-16V200a16,16,0,0,0-16-16H192a16,16,0,0,0-16,16v32A16,16,0,0,0,192,248Zm0-48h32v32H192Z"/><path d="M288,248h32a16,16,0,0,0,16-16V200a16,16,0,0,0-16-16H288a16,16,0,0,0-16,16v32A16,16,0,0,0,288,248Zm0-48h32v32H288Z"/><path d="M384,248h32a16,16,0,0,0,16-16V200a16,16,0,0,0-16-16H384a16,16,0,0,0-16,16v32A16,16,0,0,0,384,248Zm0-48h32v32H384Z"/><path d="M176,316a16,16,0,0,0,16,16h32a16,16,0,0,0,16-16V284a16,16,0,0,0-16-16H192a16,16,0,0,0-16,16Zm16-32h32v32H192Z"/><path d="M272,316a16,16,0,0,0,16,16h32a16,16,0,0,0,16-16V284a16,16,0,0,0-16-16H288a16,16,0,0,0-16,16Zm16-32h32v32H288Z"/><path d="M368,316a16,16,0,0,0,16,16h32a16,16,0,0,0,16-16V284a16,16,0,0,0-16-16H384a16,16,0,0,0-16,16Zm16-32h32v32H384Z"/><path d="M80,400a16,16,0,0,0,16,16h32a16,16,0,0,0,16-16V368a16,16,0,0,0-16-16H96a16,16,0,0,0-16,16Zm16-32h32v32H96Z"/><path d="M176,400a16,16,0,0,0,16,16h32a16,16,0,0,0,16-16V368a16,16,0,0,0-16-16H192a16,16,0,0,0-16,16Zm16-32h32v32H192Z"/><path d="M82.34,309.66l16,16a8.06,8.06,0,0,0,11.91-.66l32-40a8,8,0,0,0-12.5-10l-26.41,33-9.68-9.68a8,8,0,0,0-11.32,11.32Z"/><path d="M274.34,413.66a8,8,0,0,0,11.32,0L304,395.31l18.34,18.35a8,8,0,0,0,11.32-11.32L315.31,384l18.35-18.34a8,8,0,0,0-11.32-11.32L304,372.69l-18.34-18.35a8,8,0,0,0-11.32,11.32L292.69,384l-18.35,18.34A8,8,0,0,0,274.34,413.66Z"/><path d="M432,48H408V44a28,28,0,0,0-56,0v4H284V44a28,28,0,0,0-56,0v4H160V44a28,28,0,0,0-56,0v4H80A40.05,40.05,0,0,0,40,88V336a8,8,0,0,0,16,0V160H456V352a8,8,0,0,1-8,8H408a40.05,40.05,0,0,0-40,40v40a8,8,0,0,1-8,8L80,447.51a24,24,0,0,1-24-24V400a8,8,0,0,0-16,0v56a40.05,40.05,0,0,0,40,40H432a40.05,40.05,0,0,0,40-40V88A40.05,40.05,0,0,0,432,48Zm-64-4a12,12,0,0,1,24,0V76a12,12,0,0,1-24,0ZM244,44a12,12,0,0,1,24,0V76a12,12,0,0,1-24,0ZM120,44a12,12,0,0,1,24,0V76a12,12,0,0,1-24,0ZM56,144V88A24,24,0,0,1,80,64h24V76a28,28,0,0,0,56,0V64h68V76a28,28,0,0,0,56,0V64h68V76a28,28,0,0,0,56,0V64h24a24,24,0,0,1,24,24v56ZM384,400a24,24,0,0,1,24-24h36.7L384,436.71Zm48,80H80a24.06,24.06,0,0,1-24-24.7,39.67,39.67,0,0,0,23.93,8.21l282.71.49a40.3,40.3,0,0,0,28.43-11.74L456,387.33V456A24,24,0,0,1,432,480Z"/><circle cx="48" cy="368" r="8"/></g></g></svg>