<?xml version="1.0" encoding="utf-8"?>
<!-- Generator: Adobe Illustrator 24.0.0, SVG Export Plug-In . SVG Version: 6.00 Build 0)  -->
<svg version="1.1" id="icons" xmlns="http://www.w3.org/2000/svg" xmlns:xlink="http://www.w3.org/1999/xlink" x="0px" y="0px"
	 viewBox="0 0 340 340" style="enable-background:new 0 0 340 340;" xml:space="preserve">
<g>
	<path d="M293.4,84.7C293.3,84.7,293.3,84.7,293.4,84.7c-0.1-0.3-0.2-0.6-0.3-0.8c0,0,0,0,0-0.1c-0.1-0.2-0.2-0.4-0.3-0.6
		c0,0-0.1-0.1-0.1-0.1c-0.1-0.2-0.2-0.4-0.4-0.5c0,0,0,0,0-0.1c0-0.1-0.1-0.1-0.1-0.1c-0.1-0.1-0.3-0.3-0.4-0.4
		c-0.1-0.1-0.1-0.1-0.2-0.2c-0.2-0.1-0.3-0.2-0.5-0.3c-0.1-0.1-0.2-0.1-0.3-0.2c-0.1,0-0.2-0.1-0.3-0.1c-0.2-0.1-0.4-0.1-0.6-0.2
		c-0.1,0-0.2-0.1-0.3-0.1c-0.1,0-0.2,0-0.4-0.1c-0.2,0-0.4,0-0.6,0h-52.1c0.6-5.8,2.1-11.2,4.5-15.1c2-3.3,4-4.7,5.2-4.6
		c1.4,0.1,4.3,2.8,6,9.6c0.8,3.2,3.8,5.4,7,4.8c3.4-0.7,5.5-4,4.7-7.3c-2.7-11.4-9.1-18.5-17-19c-6.2-0.4-11.9,3.3-16.2,10.4
		c-3.4,5.7-5.6,13.2-6.2,21.3h-65.6c0.6-5.8,2.1-11.2,4.5-15.1c2-3.3,4-4.7,5.2-4.6c1.4,0.1,4.3,2.8,6,9.6c0.8,3.2,3.8,5.4,7,4.8
		c3.4-0.7,5.5-4,4.7-7.3c-2.7-11.4-9.1-18.5-17-19c-6.2-0.4-11.9,3.3-16.2,10.4c-3.4,5.7-5.6,13.2-6.2,21.3H81.1
		c0.6-5.8,2.1-11.2,4.5-15.1c2-3.3,4-4.7,5.2-4.6c1.5,0.1,4.4,2.8,6.1,9.8c0.8,3.2,4,5.2,7.2,4.4c3.2-0.8,5.2-4,4.4-7.2
		c-2.7-11.4-9.1-18.5-17-19c-6.2-0.4-11.9,3.3-16.2,10.4c-3.4,5.7-5.6,13.2-6.2,21.3H39.7c-2.5,0-4.6,1.8-4.9,4.3L5.1,285.2
		c-0.3,2.1,0.7,4.3,2.8,5.3c0.7,0.3,1.5,0.5,2.2,0.5h248.7c2.5,0,4.6-1.8,4.9-4.3l1.3-8.6l16.5-111.2c0.4-2.8,2.7-5,5.5-5
		c3.4-0.1,6.1,2.9,5.7,6.3l-12.6,100.6c-0.4,3.6,2.3,6.7,5.9,6.7h43.8c1,0,2.1-0.3,3-0.8c1.8-1.2,2.5-3.3,2.1-5.3L293.4,84.7z
		 M103.3,201.1l-4.7,4.7c0.2,0.6,0.2,1.2,0.1,1.9l-4.7,31.8c-0.3,2.2-2.2,3.8-4.5,3.8H53.2c-1.3,0-2.6-0.6-3.4-1.6
		c-0.9-1-1.2-2.3-1-3.6l5.1-34.6c0.3-2.2,2.2-3.8,4.5-3.8h10.6c2.5,0,4.5,2,4.5,4.5s-2,4.5-4.5,4.5h-6.7l-3.8,25.6h27.2l2.7-18.4
		l-10.5,10.5c-0.9,0.9-2,1.3-3.2,1.3s-2.3-0.4-3.2-1.3l-3-3c-1.8-1.8-1.8-4.6,0-6.4c1.7-1.7,4.4-1.8,6.2-0.1l22.2-22.2
		c1.8-1.8,4.6-1.8,6.4,0C105,196.5,105,199.3,103.3,201.1z M108.5,142.2l-5.1,34.6c-0.3,2.2-2.2,3.8-4.5,3.8H62.6
		c-1.3,0-2.6-0.6-3.4-1.6c-0.9-1-1.2-2.3-1-3.6l5.1-34.6c0.3-2.2,2.2-3.8,4.5-3.8H104c1.3,0,2.6,0.6,3.4,1.6
		C108.3,139.6,108.7,140.9,108.5,142.2z M168.8,204.7l-5.1,34.6c-0.3,2.2-2.2,3.8-4.5,3.8h-36.3c-1.3,0-2.6-0.6-3.4-1.6
		c-0.9-1-1.2-2.3-1-3.6l5.1-34.6c0.3-2.2,2.2-3.8,4.5-3.8h36.3c1.3,0,2.6,0.6,3.4,1.6C168.6,202.1,169,203.4,168.8,204.7z
		 M178.2,141.9l-5.1,34.6c-0.3,2.2-2.2,3.8-4.5,3.8h-36.3c-1.3,0-2.6-0.6-3.4-1.6c-0.9-1-1.2-2.3-1-3.6l5.1-34.6
		c0.3-2.2,2.2-3.8,4.5-3.8h36.3c1.3,0,2.6,0.6,3.4,1.6C178,139.3,178.4,140.6,178.2,141.9z M238.5,204.9l-5.1,34.6
		c-0.3,2.2-2.2,3.8-4.5,3.8h-36.3c-1.3,0-2.6-0.6-3.4-1.6s-1.2-2.3-1-3.6l5.1-34.6c0.3-2.2,2.2-3.8,4.5-3.8H234
		c1.3,0,2.6,0.6,3.4,1.6C238.3,202.3,238.7,203.7,238.5,204.9z M253.9,137.6l-6.3,6.3c0,0.1,0,0.2,0,0.3l-4.8,32.6
		c-0.3,2.2-2.2,3.8-4.5,3.8H202c-1.3,0-2.6-0.6-3.4-1.6s-1.2-2.3-1-3.6l5.1-34.6c0.3-2.2,2.2-3.8,4.5-3.8h11.4c2.5,0,4.5,2,4.5,4.5
		s-2,4.5-4.5,4.5H211l-3.8,25.6h27.2l2.5-17.1l-8.4,8.4c-0.9,0.9-2,1.3-3.2,1.3s-2.3-0.4-3.2-1.3l-2.8-2.8c-1.8-1.8-1.8-4.6,0-6.4
		c1.6-1.6,4.1-1.7,5.9-0.4l22.3-22.3c1.8-1.8,4.6-1.8,6.4,0C255.7,133,255.7,135.8,253.9,137.6z"/>
	<polygon points="128.1,234.2 155.3,234.2 159.1,208.5 131.9,208.5 	"/>
	<polygon points="67.8,171.6 95,171.6 98.8,146 71.6,146 	"/>
	<polygon points="137.5,171.4 164.7,171.4 168.5,145.8 141.3,145.8 	"/>
	<polygon points="197.8,234.4 225,234.4 228.8,208.8 201.6,208.8 	"/>
</g>
</svg>
