<?xml version="1.0" encoding="utf-8"?>
<!-- Generator: Adobe Illustrator 22.0.0, SVG Export Plug-In . SVG Version: 6.00 Build 0)  -->
<svg version="1.1" id="Layer_1" xmlns="http://www.w3.org/2000/svg" xmlns:xlink="http://www.w3.org/1999/xlink" x="0px" y="0px"
	 viewBox="0 0 512 512" style="enable-background:new 0 0 512 512;" xml:space="preserve">
<g>
	<path d="M376.6,334.4l24.9,14.4c1.2,0.7,2.5,1,3.8,1c2.6,0,5.2-1.4,6.6-3.8c0.7-1.1,1-2.4,1-3.6c0.1-2.7-1.3-5.3-3.8-6.8
		l-24.9-14.4c-3-1.7-6.6-1.2-9,1c-0.6,0.5-1,1.1-1.4,1.8C371.7,327.7,372.9,332.3,376.6,334.4z"/>
	<path d="M324,138.2c1.2,0.7,2.5,1,3.8,1c0.3,0,0.7,0,1-0.1c2.3-0.3,4.4-1.6,5.6-3.7l14.4-24.9c2.1-3.6,0.9-8.3-2.8-10.4
		c-3.6-2.1-8.3-0.9-10.4,2.8l-14.4,24.9C319.1,131.4,320.4,136.1,324,138.2z"/>
	<path d="M511.9,250c0-0.5,0-1.1,0-1.6c0-1.5-0.1-3-0.2-4.5c0-0.6-0.1-1.1-0.1-1.7c-0.1-1.6-0.2-3.1-0.3-4.7c0-0.4-0.1-0.8-0.1-1.2
		c-0.1-1.9-0.3-3.8-0.5-5.7c0,0,0-0.1,0-0.1c-2.6-27.2-9.5-53.4-20.5-78.1c-0.2-0.4-0.3-0.8-0.5-1.1c-0.6-1.3-1.2-2.6-1.8-3.8
		c-0.4-0.9-0.8-1.8-1.3-2.6c-0.3-0.7-0.7-1.4-1.1-2.2c-0.6-1.2-1.2-2.3-1.7-3.5c-0.2-0.3-0.3-0.6-0.5-0.9
		c-12-23.1-27.5-44.4-46.4-63.3C388.7,26.6,324.4,0,256,0S123.3,26.6,75,75c-18.9,18.9-34.5,40.3-46.4,63.3
		c-0.2,0.3-0.3,0.6-0.5,0.9c-0.6,1.2-1.2,2.3-1.7,3.5c-0.4,0.7-0.7,1.4-1.1,2.2c-0.4,0.9-0.8,1.7-1.3,2.6c-0.6,1.3-1.2,2.6-1.8,3.8
		c-0.2,0.4-0.3,0.8-0.5,1.1c-10.9,24.6-17.8,50.9-20.5,78.1c0,0,0,0.1,0,0.1c-0.2,1.9-0.3,3.8-0.5,5.7c0,0.4-0.1,0.8-0.1,1.2
		c-0.1,1.6-0.2,3.1-0.3,4.7c0,0.6-0.1,1.1-0.1,1.7c-0.1,1.5-0.1,3-0.2,4.5c0,0.5,0,1.1,0,1.6c0,2-0.1,4-0.1,6
		c0,68.4,26.6,132.7,75,181s112.6,75,181,75s132.7-26.6,181-75s75-112.6,75-181C512,254,512,252,511.9,250z M426.3,426.3
		c-45.5,45.5-105.9,70.5-170.3,70.5s-124.8-25-170.3-70.5S15.2,320.3,15.2,256c0-1.9,0-3.8,0.1-5.6c0-0.5,0-1,0-1.5
		c0-1.4,0.1-2.8,0.2-4.2c0-0.5,0.1-1,0.1-1.5c0.1-1.5,0.2-2.9,0.3-4.4c0-0.4,0.1-0.8,0.1-1.1c0.1-1.8,0.3-3.6,0.5-5.4
		c0,0,0-0.1,0-0.1c2.5-25.6,9-50.3,19.3-73.5c0.1-0.3,0.3-0.6,0.4-0.9c0.6-1.3,1.1-2.5,1.7-3.8c0.4-0.8,0.8-1.6,1.1-2.4
		c0.3-0.7,0.7-1.4,1-2.1c0.5-1.1,1.1-2.1,1.6-3.2c0.2-0.3,0.3-0.6,0.5-0.9c6.8-13,14.8-25.5,24-37.3c0.1-0.1,0.1-0.2,0.2-0.3
		c6-7.6,12.5-14.9,19.4-21.9C131.2,40.3,191.7,15.2,256,15.2s124.8,25,170.3,70.5c7,7,13.4,14.3,19.4,21.9c0.1,0.1,0.1,0.2,0.2,0.3
		c9.2,11.8,17.3,24.3,24,37.3c0.2,0.3,0.3,0.6,0.5,0.9c0.5,1.1,1.1,2.1,1.6,3.2c0.3,0.7,0.7,1.4,1,2.1c0.4,0.8,0.8,1.6,1.1,2.4
		c0.6,1.3,1.2,2.5,1.7,3.8c0.1,0.3,0.3,0.6,0.4,0.9c10.2,23.1,16.8,47.9,19.3,73.5c0,0,0,0.1,0,0.1c0.2,1.8,0.3,3.6,0.5,5.4
		c0,0.4,0.1,0.8,0.1,1.1c0.1,1.5,0.2,2.9,0.3,4.4c0,0.5,0.1,1,0.1,1.5c0.1,1.4,0.1,2.8,0.2,4.2c0,0.5,0,1,0,1.5
		c0,1.9,0.1,3.8,0.1,5.6C496.8,320.3,471.7,380.8,426.3,426.3z"/>
	<path d="M453.3,332.8c0.4-1,0.7-1.9,1.1-2.9c0.2-0.6,0.5-1.2,0.7-1.8c0.3-0.8,0.6-1.6,0.8-2.4c0.5-1.4,1-2.8,1.4-4.2
		c0.1-0.4,0.3-0.8,0.4-1.2c0.3-1,0.6-2,0.9-3c0.1-0.3,0.2-0.5,0.2-0.8c1-3.4,1.9-6.8,2.8-10.3c0-0.2,0.1-0.3,0.1-0.5
		c0.3-1.2,0.6-2.3,0.8-3.5c0,0,0-0.1,0-0.1c0.5-2.4,1-4.8,1.5-7.3c0-0.1,0-0.1,0-0.2c0.2-1,0.4-2.1,0.6-3.1c0.1-0.5,0.2-0.9,0.2-1.4
		c0.2-1,0.3-1.9,0.5-2.9c0.1-0.7,0.2-1.4,0.3-2.1c0.2-1.3,0.3-2.6,0.5-3.9c0.1-0.9,0.2-1.8,0.3-2.7c0.1-0.7,0.1-1.3,0.2-2
		c0.1-1.1,0.2-2.3,0.3-3.4c0-0.4,0.1-0.8,0.1-1.2c0.1-1.6,0.2-3.2,0.3-4.8c0-0.3,0-0.6,0-0.9c0.1-1.4,0.1-2.9,0.2-4.3
		c0-0.3,0-0.6,0-0.9c0-1.7,0.1-3.4,0.1-5.1c0-114.9-92-208.7-206.3-211.6c-1.8,0-3.6-0.1-5.5-0.1s-3.6,0-5.5,0.1
		C136.3,47.3,44.3,141.1,44.3,256c0,1.7,0,3.4,0.1,5.1c0,0.3,0,0.6,0,0.9c0,1.4,0.1,2.9,0.2,4.3c0,0.3,0,0.6,0,0.9
		c0.1,1.6,0.2,3.2,0.3,4.8c0,0.4,0.1,0.8,0.1,1.2c0.1,1.1,0.2,2.3,0.3,3.4c0.1,0.7,0.1,1.3,0.2,2c0.1,0.9,0.2,1.8,0.3,2.7
		c0.2,1.3,0.3,2.6,0.5,3.9c0.1,0.7,0.2,1.4,0.3,2.1c0.1,1,0.3,1.9,0.5,2.9c0.1,0.5,0.2,0.9,0.2,1.4c0.2,1,0.4,2.1,0.6,3.1
		c0,0.1,0,0.1,0,0.2c0.5,2.4,1,4.9,1.5,7.3c0,0,0,0.1,0,0.1c0.3,1.2,0.5,2.3,0.8,3.5c0,0.2,0.1,0.3,0.1,0.5
		c0.8,3.5,1.8,6.9,2.8,10.3c0.1,0.3,0.2,0.5,0.2,0.8c0.3,1,0.6,2,0.9,3c0.1,0.4,0.3,0.8,0.4,1.2c0.5,1.4,0.9,2.8,1.4,4.2
		c0.3,0.8,0.6,1.6,0.8,2.4c0.2,0.6,0.4,1.2,0.7,1.8c0.4,1,0.7,1.9,1.1,2.9c0.2,0.4,0.3,0.8,0.5,1.3c20.2,50.9,59.7,93.1,111.8,115.9
		c0.3,0.1,0.6,0.2,0.9,0.3c10.2,4.4,20.8,8.1,31.7,10.9c0.2,0.1,0.4,0.1,0.6,0.2c1.3,0.3,2.5,0.6,3.8,0.9c0.1,0,0.3,0.1,0.4,0.1
		c1.5,0.3,2.9,0.7,4.4,1c0.5,0.1,1,0.2,1.5,0.3c1.3,0.3,2.6,0.5,3.9,0.8c0.8,0.1,1.5,0.3,2.3,0.4c1.3,0.2,2.6,0.4,3.9,0.6
		c1.7,0.3,3.3,0.5,5,0.7c0.7,0.1,1.5,0.2,2.2,0.2c1.3,0.2,2.6,0.3,3.9,0.4c0.8,0.1,1.5,0.1,2.3,0.2c1.3,0.1,2.6,0.2,3.9,0.3
		c0.7,0,1.5,0.1,2.2,0.1c1.4,0.1,2.8,0.1,4.2,0.2c0.6,0,1.3,0.1,1.9,0.1c2,0.1,4,0.1,6.1,0.1c2,0,4.1,0,6.1-0.1c0.6,0,1.3,0,1.9-0.1
		c1.4-0.1,2.8-0.1,4.2-0.2c0.7,0,1.5-0.1,2.2-0.1c1.3-0.1,2.6-0.2,3.9-0.3c0.8-0.1,1.5-0.1,2.3-0.2c1.3-0.1,2.6-0.3,3.9-0.4
		c0.7-0.1,1.5-0.2,2.2-0.2c1.7-0.2,3.3-0.4,5-0.7c1.3-0.2,2.6-0.4,3.9-0.6c0.8-0.1,1.5-0.3,2.3-0.4c1.3-0.2,2.6-0.5,3.9-0.8
		c0.5-0.1,1-0.2,1.5-0.3c1.5-0.3,2.9-0.6,4.4-1c0.1,0,0.3-0.1,0.4-0.1c1.3-0.3,2.5-0.6,3.8-0.9c0.2-0.1,0.4-0.1,0.6-0.2
		c10.9-2.8,21.5-6.5,31.7-10.9c0.3-0.1,0.6-0.2,0.9-0.3c52-22.8,91.6-65,111.8-115.9C453,333.6,453.1,333.2,453.3,332.8z M256,59.5
		c3.4,0,6.8,0.1,10.1,0.3C369.8,65,452.5,151,452.5,256c0,1.6,0,3.2-0.1,4.8c0,0.3,0,0.5,0,0.8c0,1.4-0.1,2.7-0.2,4.1
		c0,0.3,0,0.5,0,0.8c-0.1,1.5-0.2,3-0.3,4.5c0,0.4-0.1,0.7-0.1,1.1c-0.1,1.1-0.2,2.2-0.3,3.2c-0.1,0.6-0.1,1.2-0.2,1.8
		c-0.1,0.9-0.2,1.7-0.3,2.6c-0.1,1.1-0.3,2.2-0.4,3.3c-0.1,0.7-0.2,1.4-0.3,2.2c-0.1,0.9-0.3,1.7-0.4,2.6c-0.1,0.5-0.2,0.9-0.2,1.4
		c-0.2,0.9-0.3,1.9-0.5,2.8c0,0.1,0,0.2-0.1,0.3c-0.4,2.2-0.9,4.4-1.3,6.5c0,0.1,0,0.2-0.1,0.2c-0.2,1.1-0.5,2.1-0.7,3.2
		c0,0.2-0.1,0.4-0.1,0.6c-0.8,3.2-1.6,6.3-2.5,9.4c-0.1,0.3-0.2,0.6-0.3,0.8c-0.3,0.9-0.6,1.8-0.9,2.7c-0.1,0.4-0.3,0.8-0.4,1.3
		c-0.4,1.2-0.8,2.3-1.2,3.5c-0.3,0.8-0.6,1.7-0.9,2.5c-0.2,0.5-0.4,1.1-0.6,1.6c-0.3,0.9-0.7,1.9-1.1,2.8c-0.1,0.4-0.3,0.7-0.4,1.1
		c-24.1,60.6-77.6,106.5-142.7,120c-0.3,0.1-0.7,0.1-1,0.2c-1.3,0.3-2.6,0.5-4,0.8c-0.5,0.1-1,0.2-1.5,0.3c-1.8,0.3-3.6,0.6-5.4,0.9
		c-1.1,0.2-2.2,0.3-3.3,0.5c-0.8,0.1-1.5,0.2-2.3,0.3c-1.1,0.1-2.2,0.3-3.4,0.4c-0.7,0.1-1.5,0.1-2.2,0.2c-1.2,0.1-2.3,0.2-3.5,0.3
		c-0.7,0-1.4,0.1-2.1,0.1c-1.3,0.1-2.6,0.1-3.8,0.2c-0.6,0-1.2,0.1-1.8,0.1c-1.9,0.1-3.8,0.1-5.6,0.1s-3.8,0-5.6-0.1
		c-0.6,0-1.2,0-1.8-0.1c-1.3,0-2.6-0.1-3.8-0.2c-0.7,0-1.4-0.1-2.1-0.1c-1.2-0.1-2.3-0.2-3.5-0.3c-0.7-0.1-1.5-0.1-2.2-0.2
		c-1.1-0.1-2.2-0.2-3.4-0.4c-0.8-0.1-1.5-0.2-2.3-0.3c-1.1-0.1-2.2-0.3-3.3-0.5c-1.8-0.3-3.6-0.5-5.4-0.9c-0.5-0.1-1-0.2-1.5-0.3
		c-1.3-0.2-2.7-0.5-4-0.8c-0.3-0.1-0.7-0.1-1-0.2c-65.2-13.5-118.6-59.4-142.7-120c-0.1-0.4-0.3-0.7-0.4-1.1
		c-0.4-0.9-0.7-1.9-1.1-2.8c-0.2-0.5-0.4-1-0.6-1.6c-0.3-0.8-0.6-1.7-0.9-2.5c-0.4-1.2-0.8-2.3-1.2-3.5c-0.1-0.4-0.3-0.8-0.4-1.3
		c-0.3-0.9-0.6-1.8-0.9-2.7c-0.1-0.3-0.2-0.6-0.3-0.8c-0.9-3.1-1.8-6.2-2.5-9.4c0-0.2-0.1-0.4-0.1-0.6c-0.3-1.1-0.5-2.1-0.7-3.2
		c0-0.1,0-0.2-0.1-0.2c-0.5-2.2-0.9-4.3-1.3-6.5c0-0.1,0-0.2-0.1-0.3c-0.2-0.9-0.3-1.9-0.5-2.8c-0.1-0.5-0.2-0.9-0.2-1.4
		c-0.1-0.9-0.3-1.7-0.4-2.6c-0.1-0.7-0.2-1.4-0.3-2.2c-0.2-1.1-0.3-2.2-0.4-3.3c-0.1-0.9-0.2-1.7-0.3-2.6c-0.1-0.6-0.1-1.2-0.2-1.8
		c-0.1-1.1-0.2-2.2-0.3-3.2c0-0.4-0.1-0.7-0.1-1.1c-0.1-1.5-0.2-3-0.3-4.5c0-0.3,0-0.5,0-0.8c-0.1-1.4-0.1-2.7-0.2-4.1
		c0-0.3,0-0.5,0-0.8c0-1.6-0.1-3.2-0.1-4.8c0-105,82.7-191,186.4-196.2C249.2,59.6,252.6,59.5,256,59.5z"/>
	<path d="M215.6,256c0,22.3,18.1,40.4,40.4,40.4c19.7,0,36.1-14.1,39.6-32.8H326c4.2,0,7.6-3.4,7.6-7.6s-3.4-7.6-7.6-7.6h-30.3
		c-3.1-16.2-15.9-28.9-32-32V161c0-4.2-3.4-7.6-7.6-7.6s-7.6,3.4-7.6,7.6v55.4C229.8,219.9,215.6,236.3,215.6,256z M256,230.8
		c13.9,0,25.2,11.3,25.2,25.2s-11.3,25.2-25.2,25.2s-25.2-11.3-25.2-25.2S242.1,230.8,256,230.8z"/>
	<path d="M256,120c4.2,0,7.6-3.4,7.6-7.6V83.6c0-4.2-3.4-7.6-7.6-7.6s-7.6,3.4-7.6,7.6v28.7C248.4,116.6,251.8,120,256,120z"/>
	<path d="M256,392c-4.2,0-7.6,3.4-7.6,7.6v28.7c0,4.2,3.4,7.6,7.6,7.6s7.6-3.4,7.6-7.6v-28.7C263.6,395.4,260.2,392,256,392z"/>
	<path d="M188,373.8c-1.1-0.7-2.4-1-3.6-1c-2.7-0.1-5.3,1.3-6.8,3.8l-14.4,24.9c-2.1,3.6-0.9,8.3,2.8,10.4c1.2,0.7,2.5,1,3.8,1
		c2.6,0,5.2-1.4,6.6-3.8l14.4-24.9C192.9,380.6,191.6,375.9,188,373.8z"/>
	<path d="M380.4,191.8c1.3,0,2.6-0.3,3.8-1l24.9-14.4c3.6-2.1,4.9-6.8,2.8-10.4c-1.4-2.5-4.1-3.9-6.8-3.8c-1.2,0-2.5,0.4-3.6,1
		l-24.9,14.4c-3.6,2.1-4.9,6.8-2.8,10.4C375.2,190.4,377.8,191.8,380.4,191.8z"/>
	<path d="M136.8,322.2c-2.4-2.2-6-2.7-9-1l-24.9,14.4c-2.5,1.4-3.9,4.1-3.8,6.8c0,1.2,0.4,2.5,1,3.6c1.4,2.4,4,3.8,6.6,3.8
		c1.3,0,2.6-0.3,3.8-1l24.9-14.4c3.6-2.1,4.9-6.8,2.8-10.4C137.8,323.3,137.3,322.7,136.8,322.2z"/>
	<path d="M392,256c0,4.2,3.4,7.6,7.6,7.6h28.7c4.2,0,7.6-3.4,7.6-7.6s-3.4-7.6-7.6-7.6h-28.7C395.4,248.4,392,251.8,392,256z"/>
	<path d="M120,256c0-4.2-3.4-7.6-7.6-7.6H83.6c-4.2,0-7.6,3.4-7.6,7.6s3.4,7.6,7.6,7.6h28.7C116.6,263.6,120,260.2,120,256z"/>
	<path d="M135.4,177.6l-24.9-14.4c-1.1-0.7-2.4-1-3.6-1c-2.7-0.1-5.3,1.3-6.8,3.8c-2.1,3.6-0.9,8.3,2.8,10.4l24.9,14.4
		c1.2,0.7,2.5,1,3.8,1c2.6,0,5.2-1.4,6.6-3.8C140.3,184.4,139.1,179.7,135.4,177.6z"/>
	<path d="M334.4,376.6c-1.4-2.5-4.1-3.9-6.8-3.8c-1.2,0-2.5,0.4-3.6,1c-3.6,2.1-4.9,6.8-2.8,10.4l14.4,24.9c1.4,2.4,4,3.8,6.6,3.8
		c1.3,0,2.6-0.3,3.8-1c3.6-2.1,4.9-6.8,2.8-10.4L334.4,376.6z"/>
	<path d="M176.4,102.9c-2.1-3.6-6.8-4.9-10.4-2.8c-3.6,2.1-4.9,6.8-2.8,10.4l14.4,24.9c1.2,2.1,3.3,3.4,5.6,3.7c0.3,0,0.7,0.1,1,0.1
		c1.3,0,2.6-0.3,3.8-1c3.6-2.1,4.9-6.8,2.8-10.4L176.4,102.9z"/>
</g>
</svg>
